<svg width="429" height="76" viewBox="0 0 429 76" fill="none" xmlns="http://www.w3.org/2000/svg">
<path d="M37.0002 20.0417L50.8752 12.3333L66.2918 21.4182V54.1235L52.4168 63.2083L21.5835 44.7083V27.75L52.4168 45.0387V29.2917L37.0002 20.0417ZM37.0002 20.0417L23.1252 12.3333L7.70956 21.5833L7.7085 53.9583L23.1252 63.2083L37.0002 53.9583" stroke="#8B3DFF" stroke-width="4" stroke-linecap="round" stroke-linejoin="round"/>
<path d="M117.349 13.7273V61H110.793L86.7646 26.3303H86.326V61H79.1935V13.7273H85.7951L109.847 48.4432H110.286V13.7273H117.349ZM127.199 61V25.5455H134.101V61H127.199ZM130.685 20.0749C129.484 20.0749 128.453 19.6748 127.592 18.8746C126.745 18.0591 126.322 17.0896 126.322 15.9663C126.322 14.8275 126.745 13.8581 127.592 13.0579C128.453 12.2423 129.484 11.8345 130.685 11.8345C131.885 11.8345 132.908 12.2423 133.755 13.0579C134.616 13.8581 135.047 14.8275 135.047 15.9663C135.047 17.0896 134.616 18.0591 133.755 18.8746C132.908 19.6748 131.885 20.0749 130.685 20.0749ZM159.936 25.5455V31.0852H140.57V25.5455H159.936ZM145.763 17.0511H152.665V50.5898C152.665 51.9286 152.865 52.9366 153.265 53.6136C153.665 54.2753 154.181 54.7293 154.811 54.9755C155.458 55.2063 156.158 55.3217 156.912 55.3217C157.466 55.3217 157.951 55.2833 158.366 55.2063C158.782 55.1294 159.105 55.0678 159.336 55.0217L160.582 60.723C160.182 60.8769 159.613 61.0308 158.874 61.1847C158.135 61.3539 157.212 61.4463 156.104 61.4616C154.288 61.4924 152.596 61.1693 151.026 60.4922C149.456 59.8151 148.187 58.7687 147.217 57.353C146.248 55.9373 145.763 54.1599 145.763 52.021V17.0511ZM167.57 61V25.5455H174.472V61H167.57ZM171.056 20.0749C169.855 20.0749 168.824 19.6748 167.963 18.8746C167.116 18.0591 166.693 17.0896 166.693 15.9663C166.693 14.8275 167.116 13.8581 167.963 13.0579C168.824 12.2423 169.855 11.8345 171.056 11.8345C172.256 11.8345 173.279 12.2423 174.126 13.0579C174.987 13.8581 175.418 14.8275 175.418 15.9663C175.418 17.0896 174.987 18.0591 174.126 18.8746C173.279 19.6748 172.256 20.0749 171.056 20.0749ZM190.658 39.9489V61H183.757V25.5455H190.381V31.316H190.82C191.636 29.4387 192.913 27.9306 194.652 26.7919C196.406 25.6532 198.614 25.0838 201.276 25.0838C203.692 25.0838 205.808 25.5916 207.624 26.6072C209.44 27.6075 210.848 29.1001 211.848 31.0852C212.848 33.0703 213.348 35.5247 213.348 38.4485V61H206.447V39.2795C206.447 36.7096 205.777 34.7015 204.439 33.255C203.1 31.7931 201.261 31.0621 198.922 31.0621C197.321 31.0621 195.898 31.4084 194.652 32.1009C193.421 32.7933 192.443 33.8089 191.72 35.1477C191.012 36.4711 190.658 38.0715 190.658 39.9489ZM258.734 13.7273H265.843V47.2429C265.843 50.2744 265.243 52.8673 264.043 55.0217C262.858 57.176 261.189 58.8226 259.034 59.9613C256.88 61.0846 254.356 61.6463 251.463 61.6463C248.801 61.6463 246.408 61.1616 244.285 60.1921C242.176 59.2227 240.507 57.8146 239.276 55.968C238.06 54.1061 237.452 51.844 237.452 49.1818H244.538C244.538 50.4898 244.839 51.6209 245.439 52.5749C246.054 53.529 246.893 54.2753 247.955 54.8139C249.032 55.3371 250.263 55.5987 251.648 55.5987C253.156 55.5987 254.433 55.2833 255.479 54.6523C256.541 54.006 257.349 53.0597 257.903 51.8132C258.457 50.5668 258.734 49.0433 258.734 47.2429V13.7273ZM285.989 61.7848C283.742 61.7848 281.711 61.3693 279.895 60.5384C278.079 59.692 276.64 58.4686 275.578 56.8683C274.532 55.2679 274.009 53.3059 274.009 50.9822C274.009 48.9818 274.394 47.3352 275.163 46.0426C275.932 44.75 276.971 43.7267 278.279 42.9727C279.587 42.2186 281.049 41.6493 282.665 41.2646C284.281 40.8799 285.927 40.5875 287.604 40.3874C289.728 40.1412 291.451 39.9412 292.775 39.7873C294.098 39.618 295.06 39.3487 295.66 38.9794C296.26 38.6101 296.56 38.0099 296.56 37.179V37.0174C296.56 35.0015 295.991 33.4396 294.852 32.3317C293.729 31.2237 292.052 30.6697 289.82 30.6697C287.497 30.6697 285.665 31.1852 284.327 32.2163C283.003 33.2319 282.088 34.3629 281.58 35.6094L275.094 34.1321C275.863 31.9777 276.987 30.2389 278.464 28.9155C279.956 27.5767 281.672 26.6072 283.611 26.0071C285.55 25.3916 287.589 25.0838 289.728 25.0838C291.144 25.0838 292.644 25.2531 294.229 25.5916C295.829 25.9148 297.322 26.5149 298.707 27.392C300.107 28.2692 301.254 29.5233 302.146 31.1545C303.039 32.7702 303.485 34.8707 303.485 37.456V61H296.745V56.1527H296.468C296.022 57.0452 295.352 57.9223 294.46 58.7841C293.567 59.6458 292.421 60.3614 291.021 60.9308C289.62 61.5001 287.943 61.7848 285.989 61.7848ZM287.489 56.245C289.397 56.245 291.028 55.868 292.382 55.114C293.752 54.36 294.791 53.3751 295.499 52.1594C296.222 50.9284 296.583 49.6127 296.583 48.2124V43.642C296.337 43.8883 295.86 44.1191 295.152 44.3345C294.46 44.5346 293.667 44.7115 292.775 44.8654C291.882 45.0039 291.013 45.1347 290.167 45.2578C289.32 45.3655 288.612 45.4579 288.043 45.5348C286.704 45.7041 285.481 45.9888 284.373 46.3888C283.28 46.7889 282.403 47.366 281.741 48.12C281.095 48.8587 280.772 49.8435 280.772 51.0746C280.772 52.7827 281.403 54.0753 282.665 54.9524C283.927 55.8142 285.535 56.245 287.489 56.245ZM319.579 39.9489V61H312.678V25.5455H319.302V31.316H319.741C320.556 29.4387 321.834 27.9306 323.573 26.7919C325.327 25.6532 327.535 25.0838 330.197 25.0838C332.613 25.0838 334.729 25.5916 336.545 26.6072C338.361 27.6075 339.769 29.1001 340.769 31.0852C341.769 33.0703 342.269 35.5247 342.269 38.4485V61H335.368V39.2795C335.368 36.7096 334.698 34.7015 333.359 33.255C332.021 31.7931 330.182 31.0621 327.843 31.0621C326.242 31.0621 324.819 31.4084 323.573 32.1009C322.341 32.7933 321.364 33.8089 320.641 35.1477C319.933 36.4711 319.579 38.0715 319.579 39.9489ZM366.39 75.0341C363.574 75.0341 361.151 74.6648 359.119 73.9261C357.104 73.1875 355.457 72.2103 354.18 70.9947C352.903 69.779 351.948 68.4479 351.318 67.0014L357.25 64.5547C357.665 65.2318 358.219 65.9473 358.912 66.7013C359.62 67.4708 360.574 68.1248 361.774 68.6634C362.99 69.2019 364.551 69.4712 366.46 69.4712C369.076 69.4712 371.238 68.8326 372.946 67.5554C374.654 66.2936 375.508 64.2777 375.508 61.5078V54.5369H375.069C374.654 55.291 374.054 56.1296 373.269 57.0529C372.499 57.9762 371.438 58.7764 370.084 59.4535C368.729 60.1306 366.967 60.4691 364.798 60.4691C361.997 60.4691 359.473 59.8151 357.227 58.5071C354.995 57.1837 353.226 55.2371 351.918 52.6673C350.625 50.082 349.979 46.9044 349.979 43.1342C349.979 39.3641 350.617 36.1326 351.895 33.4396C353.187 30.7467 354.957 28.6847 357.204 27.2536C359.45 25.8071 361.997 25.0838 364.844 25.0838C367.044 25.0838 368.822 25.4531 370.176 26.1918C371.53 26.915 372.584 27.7614 373.338 28.7308C374.108 29.7003 374.7 30.5543 375.116 31.293H375.623V25.5455H382.386V61.7848C382.386 64.8317 381.679 67.3323 380.263 69.2866C378.847 71.2409 376.931 72.6874 374.515 73.6261C372.115 74.5647 369.406 75.0341 366.39 75.0341ZM366.321 54.7447C368.306 54.7447 369.984 54.283 371.353 53.3597C372.738 52.421 373.784 51.0823 374.492 49.3434C375.216 47.5891 375.577 45.4886 375.577 43.0419C375.577 40.6567 375.223 38.5562 374.515 36.7404C373.807 34.9246 372.769 33.5089 371.399 32.4933C370.03 31.4622 368.337 30.9467 366.321 30.9467C364.244 30.9467 362.513 31.4853 361.128 32.5625C359.743 33.6243 358.696 35.0708 357.988 36.902C357.296 38.7332 356.95 40.7798 356.95 43.0419C356.95 45.3655 357.304 47.4045 358.011 49.1587C358.719 50.913 359.766 52.2826 361.151 53.2674C362.551 54.2522 364.274 54.7447 366.321 54.7447ZM391.642 61V25.5455H398.544V61H391.642ZM395.128 20.0749C393.928 20.0749 392.897 19.6748 392.035 18.8746C391.189 18.0591 390.765 17.0896 390.765 15.9663C390.765 14.8275 391.189 13.8581 392.035 13.0579C392.897 12.2423 393.928 11.8345 395.128 11.8345C396.328 11.8345 397.352 12.2423 398.198 13.0579C399.06 13.8581 399.491 14.8275 399.491 15.9663C399.491 17.0896 399.06 18.0591 398.198 18.8746C397.352 19.6748 396.328 20.0749 395.128 20.0749ZM407.829 61V25.5455H414.5V31.1776H414.869C415.515 29.2694 416.654 27.7691 418.285 26.6765C419.932 25.5685 421.794 25.0146 423.871 25.0146C424.302 25.0146 424.81 25.0299 425.395 25.0607C425.995 25.0915 426.464 25.13 426.803 25.1761V31.7777C426.526 31.7008 426.033 31.6161 425.325 31.5238C424.618 31.4161 423.91 31.3622 423.202 31.3622C421.571 31.3622 420.117 31.7085 418.839 32.4009C417.577 33.078 416.577 34.0244 415.839 35.2401C415.1 36.4403 414.731 37.8099 414.731 39.3487V61H407.829Z" fill="#8B3DFF"/>
</svg>
